<svg width="512" height="512" version="1.1" viewBox="0 0 135.47 135.47" xml:space="preserve" xmlns="http://www.w3.org/2000/svg"><g><path d="m54.172 42.337a8.3806 8.745 0 0 1-8.3806 8.745 8.3806 8.745 0 0 1-8.3806-8.745 8.3806 8.745 0 0 1 8.3806-8.745 8.3806 8.745 0 0 1 8.3806 8.745zm-16.761 70.304v-54.206h16.761v7.8887c-1.24 1.5731 3.5408-3.738 8.9308-5.8664 6.4217-2.5358 12.021-2.0219 12.021-2.0219v19.676s-8.2793-0.3193-14.898 6.173c-6.8318 6.7018-6.0539 14.961-6.0539 14.961v13.396z" fill="#830000" stroke-width=".63998"/><path d="m89.815 88.96 6.244 6.1288s10.792-10.021 10.793-26.88c2.9e-4 -16.859-10.792-26.88-10.792-26.88l-6.244 6.1287s8.2485 8.4677 8.2482 20.751c-2.9e-4 12.283-8.2488 20.751-8.2488 20.751zm11.131 11.046 6.3157 6.0662s15.297-13.883 15.297-37.864c2.9e-4 -23.98-15.297-37.864-15.297-37.864l-6.3157 6.0662s12.844 11.891 12.912 31.797c-0.0694 19.907-12.913 31.797-12.913 31.797zm-22.406-21.895 6.3157 5.995s6.2942-6.201 6.2945-15.897c2.9e-4 -9.6958-6.2939-15.897-6.2939-15.897l-6.3157 6.1227s3.9103 3.5159 3.8897 9.7741c0.02004 6.2582-3.8903 9.9019-3.8903 9.9019z" fill="#2295f3"/></g></svg>
