<svg width="512" height="512" version="1.1" viewBox="0 0 135.47 135.47" xml:space="preserve" xmlns="http://www.w3.org/2000/svg"><g><path d="m27.212 22.733a13.159 13.731 0 0 1-13.159 13.731 13.159 13.731 0 0 1-13.159-13.731 13.159 13.731 0 0 1 13.159-13.731 13.159 13.731 0 0 1 13.159 13.731zm-26.318 110.39v-85.113h26.318v12.387c-1.9471 2.47 5.5597-5.8694 14.023-9.2113 10.083-3.9816 18.875-3.1747 18.875-3.1747v30.895s-13-0.50136-23.392 9.6927c-10.727 10.523-9.5058 23.491-9.5058 23.491v21.034z" fill="#830000" stroke-width="1.0049"/><path d="m83.179 95.939 9.8041 9.6232s16.946-15.734 16.946-42.206c4.6e-4 -26.472-16.946-42.206-16.946-42.206l-9.8041 9.6232s12.952 13.296 12.951 32.583c-4.61e-4 19.287-12.952 32.583-12.952 32.583zm17.478 17.345 9.9167 9.525s24.019-21.799 24.019-59.452c4.6e-4 -37.653-24.019-59.452-24.019-59.452l-9.9167 9.525s20.167 18.67 20.275 49.927c-0.10897 31.257-20.276 49.927-20.276 49.927zm-35.181-34.38 9.9168 9.4132s9.883-9.7367 9.8834-24.961c4.55e-4 -15.224-9.8825-24.961-9.8825-24.961l-9.9168 9.6137s6.1399 5.5206 6.1075 15.347c0.03146 9.8265-6.1084 15.548-6.1084 15.548z" fill="#2295f3"/></g></svg>
