<?xml version="1.0" encoding="UTF-8" standalone="no"?>
<!-- Created with Inkscape (http://www.inkscape.org/) -->

<svg
   width="128"
   height="128"
   viewBox="0 0 33.866667 33.866665"
   version="1.1"
   id="svg5"
   xml:space="preserve"
   inkscape:version="1.2.2 (b0a8486541, 2022-12-01)"
   sodipodi:docname="irwa-logo.svg"
   inkscape:export-filename="irpwa.png"
   inkscape:export-xdpi="47.8125"
   inkscape:export-ydpi="47.8125"
   xmlns:inkscape="http://www.inkscape.org/namespaces/inkscape"
   xmlns:sodipodi="http://sodipodi.sourceforge.net/DTD/sodipodi-0.dtd"
   xmlns="http://www.w3.org/2000/svg"
   xmlns:svg="http://www.w3.org/2000/svg"><sodipodi:namedview
     id="namedview7"
     pagecolor="#ffffff"
     bordercolor="#000000"
     borderopacity="0.25"
     inkscape:showpageshadow="2"
     inkscape:pageopacity="0.0"
     inkscape:pagecheckerboard="0"
     inkscape:deskcolor="#d1d1d1"
     inkscape:document-units="mm"
     showgrid="false"
     inkscape:zoom="4.2835116"
     inkscape:cx="64.549843"
     inkscape:cy="62.21531"
     inkscape:window-width="1920"
     inkscape:window-height="1004"
     inkscape:window-x="1920"
     inkscape:window-y="0"
     inkscape:window-maximized="1"
     inkscape:current-layer="layer2" /><defs
     id="defs2" /><g
     inkscape:groupmode="layer"
     id="layer2"
     inkscape:label="Logo"
     style="display:inline"><path
       id="path6674"
       style="display:inline;fill:#830000;stroke-width:0.245035"
       inkscape:label="IR"
       d="M 7.3117734,5.8494867 A 3.2087307,3.3482541 0 0 1 4.1030428,9.1977407 3.2087307,3.3482541 0 0 1 0.89431176,5.8494867 3.2087307,3.3482541 0 0 1 4.1030428,2.5012328 3.2087307,3.3482541 0 0 1 7.3117734,5.8494867 Z M 0.89431351,32.76704 V 12.012898 H 7.3117741 v 3.020405 C 6.8369982,15.635586 8.6674632,13.602097 10.731171,12.787195 13.189883,11.816318 15.3336,12.013058 15.3336,12.013058 v 7.53346 c 0,0 -3.169926,-0.122253 -5.7039195,2.363492 -2.6157413,2.565941 -2.3179064,5.728072 -2.3179064,5.728072 v 5.128958 z" /><path
       id="path11551"
       style="display:inline;fill:#2295f3;fill-opacity:1;stroke:none;stroke-width:0.391718;stroke-opacity:1"
       d="m 20.958789,23.700423 2.390664,2.346548 c 0,0 4.132161,-3.836699 4.132273,-10.291638 1.12e-4,-6.4549359 -4.13205,-10.2916332 -4.13205,-10.2916332 l -2.390664,2.3465424 c 0,0 3.158157,3.2420848 3.158048,7.9450908 -1.13e-4,4.703006 -3.158271,7.94509 -3.158271,7.94509 z m 4.261892,4.22934 2.418116,2.322612 c 0,0 5.856859,-5.315525 5.856969,-14.497042 C 33.495878,6.5738176 27.639017,1.2582935 27.639017,1.2582935 l -2.418114,2.3226089 c 0,0 4.9175,4.5526238 4.943835,12.1744306 -0.02657,7.621811 -4.944057,12.17443 -4.944057,12.17443 z m -8.578675,-8.383245 2.418146,2.295328 c 0,0 2.409887,-2.374219 2.409997,-6.086513 1.1e-4,-3.712291 -2.409775,-6.0865127 -2.409775,-6.0865127 l -2.418146,2.3442377 c 0,0 1.497177,1.346164 1.489276,3.742275 0.0077,2.396113 -1.489498,3.791185 -1.489498,3.791185 z"
       sodipodi:nodetypes="ccccccccccccccccccccc"
       inkscape:label="waves" /></g></svg>
